# xmcd CD database file
#
# Track frame offsets:
#	150
#	27648
#	48491
#	69916
#	95070
#	119816
#	147748
#	176318
#	210275
#	232082
#	258183
#
# Disc length: 3792 seconds
#
# Revision: 0
# Processed by: cddbd v1.5.2PL0 Copyright (c) Steve Scherf et al.
# Submitted via: CDex 1.51
#
DISCID=a40ece0b
DTITLE=Esra Dalfidan - FIDAN - colors
DYEAR=2007
DGENRE=Jazz
TTITLE0=Everlasting Asking
TTITLE1=Gossip
TTITLE2=Blue
TTITLE3=Sen Gelmez Oldun
TTITLE4=Straight Ahead
TTITLE5=Bridges
TTITLE6=Worthwhile
TTITLE7=Endless
TTITLE8=Dizzy
TTITLE9=Yalgizam
TTITLE10=Colors
EXTD=YEAR: 2007
EXTT0=
EXTT1=
EXTT2=
EXTT3=
EXTT4=
EXTT5=
EXTT6=
EXTT7=
EXTT8=
EXTT9=
EXTT10=
PLAYORDER=
